<svg id="Layer_1" data-name="Layer 1" xmlns="http://www.w3.org/2000/svg" viewBox="0 0 512 512"><defs><style>.cls-1{fill:#e6e6e6;}</style></defs><title>Artboard 1</title><path class="cls-1" d="M111.38,195.11c.34,0,.68,0,1,0a11.78,11.78,0,0,0,11.72-10.77h0c.3-3.41.73-6.8,1.24-10.16a11.76,11.76,0,1,0-23.23-3.68c-.62,3.89-1.12,7.84-1.45,11.85A11.76,11.76,0,0,0,111.38,195.11Z"/><path class="cls-1" d="M399.23,160.76a11.74,11.74,0,0,0-9.72,13.48c.52,3.34.93,6.73,1.23,10.15a11.78,11.78,0,0,0,11.73,10.76c.34,0,.67,0,1,0a11.77,11.77,0,0,0,10.7-12.75c-.34-4-.82-7.94-1.46-11.86A11.77,11.77,0,0,0,399.23,160.76Z"/><path class="cls-1" d="M450.1,345.37c-24.39-25-52.36-39.91-73.49-48.55A156.14,156.14,0,0,0,410.72,226a11.69,11.69,0,0,0,.16-2.86,11.72,11.72,0,0,0-15.79-15.15c-52.45,24.37-99.59,32.5-139.57,32.52a279.83,279.83,0,0,1-99.85-18.1,223.17,223.17,0,0,1-27-12.34c-3.05-1.66-5.35-3-6.85-3.94s-2-1.32-2-1.3A11.73,11.73,0,0,0,101.65,217a11.74,11.74,0,0,0,.05,1.19,156.92,156.92,0,0,0,101,124.64v57.75a11.83,11.83,0,0,0,1.48,5.7l32.69,59.16H114V431.33a11.77,11.77,0,0,0-23.55,0v34.13H36.38c3.56-64.94,35.35-105.12,68.85-129.19A11.77,11.77,0,0,0,91.59,317.1h0c-40.39,28.54-79.2,80.4-79.06,160.15A11.77,11.77,0,0,0,24.28,489H489.44a11.77,11.77,0,0,0,11.77-11.77C501.32,417.34,478.39,374.29,450.1,345.37ZM130.26,237.16c25,11.61,68.46,26.82,125.27,26.85,37.36,0,80.43-6.68,127.32-25.22a133.17,133.17,0,0,1-252.59-1.64ZM427.87,465.47c0-.25.07-.49.07-.74V434a11.77,11.77,0,1,0-23.53,0v30.72c0,.25.06.49.07.74H263.8l-37.52-67.88V349.46A156.47,156.47,0,0,0,358.49,315c.2.08.36.2.56.26,19.52,7,49.56,21.18,74.18,46.54C456,385.34,474.59,418,477.33,465.47Z"/><path class="cls-1" d="M117,151a11.75,11.75,0,0,0,11.95-.37s.25-.16,1.29-.73c7.31-4,44.71-22.78,113.21-22.79,39.16,0,88.53,6.13,148.35,24.83a11.77,11.77,0,0,0,15.28-11.45L405.19,30.56A11.74,11.74,0,0,0,393.44,19H122.52a11.76,11.76,0,0,0-11.77,11.79l.18,109.91A11.77,11.77,0,0,0,117,151ZM381.87,42.54l1.43,82.25C328.2,109,281.58,103.55,243.49,103.55h-.09c-52.77,0-89.08,10.54-109,18.5l-.14-79.51Z"/><path class="cls-1" d="M263.64,374a11.76,11.76,0,1,0,8.33,3.44A11.84,11.84,0,0,0,263.64,374Z"/></svg>