<svg id="Layer_1" data-name="Layer 1" xmlns="http://www.w3.org/2000/svg" viewBox="0 0 512 512"><defs><style>.cls-1{fill:#e6e6e6;}</style></defs><title>Artboard 1</title><path class="cls-1" d="M412.7,286.32V232.06a58.5,58.5,0,1,0-54.91-96.62L310.6,102.22a58.52,58.52,0,1,0-111.55,0L151.66,135.6a58.48,58.48,0,1,0-54.88,96.48v54.21a58.51,58.51,0,1,0,53.53,98l48.38,33a58.52,58.52,0,1,0,112.28,0l48.17-32.87a58.5,58.5,0,1,0,53.56-98.12ZM401.08,139.43a35.27,35.27,0,1,1-35.29,35.28A35.32,35.32,0,0,1,401.08,139.43ZM254.83,49.24a35.28,35.28,0,1,1-35.28,35.28A35.33,35.33,0,0,1,254.83,49.24Zm-44.34,73.4a58.4,58.4,0,0,0,88.7,0l46.68,32.85a57.71,57.71,0,0,0,.72,40.44l-46.51,31.74a58.5,58.5,0,0,0-90.48,0l-46.8-31.93a57.64,57.64,0,0,0,.72-40ZM254.82,300a35.28,35.28,0,1,1,35.28-35.26A35.32,35.32,0,0,1,254.82,300ZM72.95,174.71A35.28,35.28,0,1,1,108.23,210,35.34,35.34,0,0,1,72.95,174.71ZM108.23,379a35.28,35.28,0,1,1,35.27-35.27A35.34,35.34,0,0,1,108.23,379Zm54.57-14.29A58.4,58.4,0,0,0,120,286.35V232a58.32,58.32,0,0,0,30.29-16.73l48.38,33a58.39,58.39,0,0,0,44.51,73.78v54.26a58.49,58.49,0,0,0-33.61,20.24Zm92,104.33a35.29,35.29,0,0,1-.07-70.57h.15a35.29,35.29,0,0,1-.07,70.57Zm45.24-72.39a58.5,58.5,0,0,0-33.62-20.26V322.09A58.42,58.42,0,0,0,311,248.34l48.17-32.88a58.32,58.32,0,0,0,30.32,16.59v54.27a58.4,58.4,0,0,0-42.88,78.55Zm101-17.65a35.28,35.28,0,0,1,0-70.56h.07a35.28,35.28,0,0,1,0,70.56Z"/></svg>