<svg id="Layer_1" data-name="Layer 1" xmlns="http://www.w3.org/2000/svg" viewBox="0 0 512 512"><defs><style>.cls-1{fill:#e6e6e6}</style></defs><title>Artboard 1</title><path class="cls-1" d="M459.75 89.24a11.62 11.62 0 1 0 16.44-16.44l-34.95-34.93a11.61 11.61 0 1 0-16.42 16.42zm-46.08 121.02a11.7 11.7 0 0 0-1.2-2.35L477.41 143a11.65 11.65 0 0 0 0-16.43L383.85 33a11.67 11.67 0 0 0-8.22-3.41 11.79 11.79 0 0 0-8.22 3.41L254.16 146.3l-81 81a11.58 11.58 0 0 0 0 16.4l93.54 93.55a11.46 11.46 0 0 0 8.22 3.4 11.58 11.58 0 0 0 8.22-3.4l111.47-111.46L430.8 325a69.7 69.7 0 0 0-44.69 1.27l-5.39-35.48a11.61 11.61 0 1 0-23 3.49l6.52 42.87a12.41 12.41 0 0 0 .39 1.59A70.1 70.1 0 0 0 340 389.89H234L106.21 271a11.62 11.62 0 1 0-15.83 17l63.51 59.08-.11.1-110.88 123a11.63 11.63 0 0 0 8.62 19.41h329.81a11.57 11.57 0 0 0 8.22-3.41l22.07-22.07a11.93 11.93 0 0 0 1.36-1.68 70.18 70.18 0 0 0 50.28-116.24zm-38-152.64l77.13 77.13-96.88 96.89-77.13-77.12zM274.86 312.69l-77.13-77.11L262.32 171l77.13 77.12zM376.52 466.3H77.61l93.26-103.44L221.54 410a11.64 11.64 0 0 0 7.92 3.11h113.62a70.44 70.44 0 0 0 42 44.66zm33.71-27a47.08 47.08 0 1 1 47.08-47.08 47.13 47.13 0 0 1-47.08 47.05z"/><path class="cls-1" d="M410.22 375.45a16.73 16.73 0 1 0 16.72 16.75 16.75 16.75 0 0 0-16.72-16.75zm5.12 16.75z"/></svg>