<svg id="Layer_1" data-name="Layer 1" xmlns="http://www.w3.org/2000/svg" viewBox="0 0 512 512"><defs><style>.cls-1{fill:#e6e6e6}</style></defs><title>Artboard 1</title><path class="cls-1" d="M494.35 369.19a12.12 12.12 0 0 0-8.51-3.53H382.38v-58.87a12.07 12.07 0 0 0-12-12.06h-128.5l-18-95.86a12 12 0 0 0-12-9.81l-66.6.69a12 12 0 0 0-11.91 12.05v92.92H120L104.22 159.9a12.06 12.06 0 0 0-12.17-10.63l-57.22 1a12 12 0 0 0-11.84 12V477a12.05 12.05 0 0 0 12 12h165.75a11.79 11.79 0 0 0 2.75-.35 11.7 11.7 0 0 0 2.75.36h279.61a12 12 0 0 0 12-12v-99.32a12.09 12.09 0 0 0-3.5-8.5zM157.5 213.71l44.58-.48 15.29 81.5H157.5zm-75.94-40.2l14.23 121.22H47.08V174.1zm-34.5 145.32H358.3v46.84H206.24a12 12 0 0 0-12 12v87.25H47.06zm426.73 146.1H218.28v-75.2h255.51zM180.68 110.5a97.1 97.1 0 0 0-15.78 32.42 12 12 0 0 0 23.43 5.59 15.92 15.92 0 0 1 .46-1.63 75.28 75.28 0 0 1 14.8-26.42c9.14-10.1 21.74-18.63 42.84-18.74 11.25 0 25.12 2.57 42.1 9.56C341.7 133 381 144.32 413.24 144.41c26.73.18 48.93-8.72 65.65-25.65a12 12 0 1 0-17-17c-12.75 12.47-26.66 18.42-48.65 18.58-26.32.09-63.66-10-115.55-31.33-19.3-7.94-36.3-11.37-51.26-11.37-32.43-.19-54.08 16.78-65.75 32.86zm-60.33 20.45a12.31 12.31 0 0 0 2.67.3 12.06 12.06 0 0 0 11.73-9.38s.19-.93.82-3.09c2.12-7.52 8.91-27.26 22.32-44.2 13.62-17 32.42-31 61.75-31.12a12 12 0 1 0 0-24.06c-43.39-.11-71.56 25.42-87.16 49.27a159.09 159.09 0 0 0-21.23 47.91 12 12 0 0 0 9.1 14.37zm333.32 37.53a104 104 0 0 1-48.75 12 121.89 121.89 0 0 1-42.45-8 114.74 114.74 0 0 1-12.34-5.44c-1.42-.72-2.49-1.31-3.15-1.72s-.85-.49-.85-.48a12 12 0 0 0-12.86 20.36c1 .59 30.32 19.23 71.64 19.35h.09a127.83 127.83 0 0 0 59.8-14.8 12 12 0 0 0-11.16-21.32z"/><path class="cls-1" d="M83.2 363.71h20.08a12 12 0 1 0 0-24.08H83.2a12 12 0 0 0 0 24.08zm20.08 13.16H83.2a12 12 0 0 0 0 24.06h20.08a12 12 0 1 0 0-24.06zm0 37.23H83.21a12 12 0 0 0 0 24.08h20.07a12 12 0 1 0 0-24.08zm41.11-13.17h15.3a12 12 0 1 0 0-24.06h-15.3a12 12 0 0 0 0 24.06zm15.3 13.17h-15.3a12 12 0 0 0 0 24.08h15.31a12 12 0 1 0 0-24.08z"/></svg>